<svg width="32" height="32" viewBox="0 0 32 32" fill="none" xmlns="http://www.w3.org/2000/svg">
  <!-- Background circle with gradient -->
  <circle cx="16" cy="16" r="16" fill="url(#gradient)"/>
  
  <!-- Hotel building icon -->
  <path d="M8 24V12L16 8L24 12V24H20V20H12V24H8Z" fill="white" stroke="white" stroke-width="0.5"/>
  
  <!-- Windows -->
  <rect x="10" y="14" width="2" height="2" fill="#3b82f6" rx="0.5"/>
  <rect x="14" y="14" width="2" height="2" fill="#3b82f6" rx="0.5"/>
  <rect x="18" y="14" width="2" height="2" fill="#3b82f6" rx="0.5"/>
  <rect x="22" y="14" width="2" height="2" fill="#3b82f6" rx="0.5"/>
  
  <!-- Door -->
  <rect x="14" y="20" width="4" height="4" fill="#3b82f6" rx="0.5"/>
  <circle cx="16.5" cy="22" r="0.5" fill="white"/>
  
  <!-- Roof detail -->
  <path d="M16 6L26 11V10L16 5L6 10V11L16 6Z" fill="#1d4ed8"/>
  
  <!-- Gradient definition -->
  <defs>
    <linearGradient id="gradient" x1="0%" y1="0%" x2="100%" y2="100%">
      <stop offset="0%" style="stop-color:#3b82f6;stop-opacity:1" />
      <stop offset="100%" style="stop-color:#1d4ed8;stop-opacity:1" />
    </linearGradient>
  </defs>
</svg>
